<svg xmlns="http://www.w3.org/2000/svg" version="1.1" xmlns:xlink="http://www.w3.org/1999/xlink" xmlns:svgjs="http://svgjs.dev/svgjs" viewBox="0 0 4.119803079864313 1.7891839330214443"><g transform="matrix(1,0,0,1,-0.4221716727143281,0.1919239665107222)"><g transform="matrix(1,0,0,1,0,0)"><g clip-path="url(#SvgjsClipPath1001)"><path d=" M 0.6444696545588382 0.030374015333787807 L 4.319676770734131 0.030374015333787807 L 4.319676770734131 1.374961984666212 L 0.6444696545588382 1.374961984666212 Z" fill="#000000" transform="matrix(1,0,0,1,0,0)" fill-rule="nonzero"></path></g></g><g transform="matrix(1,0,0,1,0,0)"><path d=" M 1.5720254675588379 0.46762012099999983 C 1.578528768558838 0.47226533599999987 1.585032069558838 0.47505246499999987 1.590606327558838 0.47505246499999987 C 1.601754843558838 0.47505246499999987 1.610116230558838 0.46669107799999987 1.610116230558838 0.4527554329999999 C 1.610116230558838 0.44811021799999984 1.609187187558838 0.4434650029999999 1.607329101558838 0.4378907449999999 C 1.593393456558838 0.4044451969999999 1.570167381558838 0.3886514659999999 1.539508962558838 0.3886514659999999 C 1.399223469558838 0.3886514659999999 1.263583191558838 0.4992075829999999 1.263583191558838 0.6450673339999999 C 1.263583191558838 0.6515706349999999 1.263583191558838 0.6580739359999999 1.264512234558838 0.6645772369999998 C 1.272873621558838 0.7546944079999999 1.334190459558838 0.8503858369999998 1.356487491558838 0.9191350189999998 C 1.360203663558838 0.9293544919999999 1.3611327065588381 0.9377158789999999 1.3611327065588381 0.9470063089999998 C 1.3611327065588381 0.9832389859999998 1.335119502558838 1.011110276 1.298886825558838 1.011110276 C 1.263583191558838 1.011110276 1.258008933558838 0.9999617599999998 1.240357116558838 0.9888132439999998 C 1.238499030558838 0.9897422869999999 1.237569987558838 0.9897422869999999 1.236640944558838 0.9897422869999999 C 1.232924772558838 0.9897422869999999 1.231995729558838 0.9850970719999999 1.226421471558838 0.9823099429999999 C 1.223634342558838 0.9823099429999999 1.224563385558838 0.9841680289999999 1.222705299558838 0.9878842009999999 C 1.222705299558838 1.0083231469999998 1.262654148558838 1.0603495549999997 1.280305965558838 1.0696399849999998 C 1.295170653558838 1.082646587 1.335119502558838 1.0863627589999998 1.344409932558838 1.0863627589999998 C 1.416875286558838 1.0863627589999998 1.492127769558838 1.0138974049999998 1.497702027558838 0.9349287499999999 C 1.497702027558838 0.9302835349999998 1.498631070558838 0.9256383199999998 1.498631070558838 0.9209931049999999 C 1.498631070558838 0.8197274179999998 1.415017200558838 0.7045260859999998 1.409442942558838 0.6134798719999999 L 1.409442942558838 0.6088346569999998 C 1.409442942558838 0.5465887759999999 1.482837339558838 0.46669107799999987 1.557160779558838 0.46669107799999987 C 1.561805994558838 0.46669107799999987 1.567380252558838 0.46669107799999987 1.5720254675588379 0.46762012099999983 M 1.8098768063928223 0.9897422869999999 C 1.8776969453928223 0.9897422869999999 1.9743174173928224 0.8708247829999999 2.0105500943928223 0.8057917729999998 C 2.0114791373928225 0.8048627299999999 2.0114791373928225 0.8030046439999998 2.0114791373928225 0.8002175149999998 C 2.0114791373928225 0.7899980419999999 2.0049758363928225 0.7704881389999998 1.9956854063928224 0.7704881389999998 C 1.9928982773928223 0.7704881389999998 1.9891821053928225 0.7723462249999998 1.9863949763928224 0.7769914399999999 C 1.9278652673928223 0.8559600949999998 1.8628322573928224 0.9330706639999998 1.8498256553928223 0.9330706639999998 C 1.8488966123928223 0.9330706639999998 1.8479675693928224 0.9302835349999998 1.8479675693928224 0.9247092769999998 C 1.8479675693928224 0.9014832019999999 1.8563289563928222 0.8383082779999999 1.8563289563928222 0.7927851709999998 C 1.8563289563928222 0.7742043109999999 1.8544708703928223 0.7574815369999999 1.8507546983928225 0.7491201499999999 C 1.8423933113928224 0.7305392899999998 1.8089477633928224 0.7221779029999998 1.7829345593928223 0.7221779029999998 C 1.7727150863928223 0.7221779029999998 1.7643536993928224 0.7231069459999999 1.7578503983928224 0.7258940749999998 C 1.7132563343928224 0.7435458919999999 1.6779527003928223 0.8132241169999999 1.6630880123928224 0.8355211489999999 C 1.6695913133928224 0.8057917729999998 1.6825979153928223 0.7454039779999999 1.6872431303928224 0.7193907739999998 L 1.6872431303928224 0.7156746019999998 C 1.6872431303928224 0.7035970429999998 1.6760946143928224 0.6924485269999998 1.6630880123928224 0.6924485269999998 C 1.6584427973928224 0.6924485269999998 1.6528685393928224 0.6943066129999999 1.6482233243928224 0.6980227849999998 C 1.6277843783928223 0.7054551289999998 1.6027002173928224 0.6980227849999998 1.5961969163928225 0.7258940749999998 C 1.5831903143928223 0.7834947409999998 1.5664675403928223 0.8894056429999998 1.5664675403928223 0.9497934379999998 C 1.5711127553928224 0.9665162119999998 1.5841193573928223 0.9590838679999998 1.6036292603928224 0.9674452549999999 C 1.6110616043928223 0.9748775989999998 1.6184939483928225 0.9785937709999999 1.6249972493928224 0.9785937709999999 C 1.6352167223928225 0.9785937709999999 1.6445071523928223 0.9702323839999998 1.6500814103928223 0.9544386529999999 C 1.6816688723928224 0.8884765999999998 1.7104692053928223 0.8271597619999999 1.7569213553928225 0.7732752679999999 C 1.7606375273928223 0.7742043109999999 1.7615665703928223 0.7807076119999998 1.7615665703928223 0.7899980419999999 C 1.7615665703928223 0.8197274179999998 1.7494890113928223 0.8810442559999998 1.7494890113928223 0.9247092769999998 C 1.7494890113928223 0.9674452549999999 1.7634246563928224 0.9897422869999999 1.8098768063928223 0.9897422869999999 M 2.077460243032471 0.7389006769999998 C 2.079318329032471 0.7351845049999999 2.080247372032471 0.7305392899999998 2.080247372032471 0.7268231179999998 C 2.080247372032471 0.6970937419999998 2.044943738032471 0.6905904409999999 2.021717663032471 0.6905904409999999 C 2.018001491032471 0.6905904409999999 2.0142853190324708 0.6905904409999999 2.010569147032471 0.6933775699999998 C 1.9799107280324708 0.7110293869999998 1.9511103950324709 0.8122950739999999 1.9511103950324709 0.8652505249999999 C 1.9511103950324709 0.9191350189999998 1.982697857032471 0.9628000399999999 2.037511394032471 0.9628000399999999 C 2.102544404032471 0.9628000399999999 2.160145070032471 0.8773280839999998 2.2056681770324706 0.8104369879999999 L 2.218674779032471 0.7918561279999998 C 2.221461908032471 0.7881399559999999 2.222390951032471 0.7844237839999999 2.222390951032471 0.7807076119999998 C 2.222390951032471 0.7686300529999999 2.212171478032471 0.7565524939999999 2.202881048032471 0.7565524939999999 C 2.200093919032471 0.7565524939999999 2.1973067900324708 0.7574815369999999 2.194519661032471 0.7611977089999998 C 2.1861582740324708 0.7723462249999998 2.0811764150324708 0.9256383199999998 2.0495889530324707 0.9256383199999998 C 2.041227566032471 0.9256383199999998 2.041227566032471 0.9135607609999998 2.041227566032471 0.9079865029999998 C 2.041227566032471 0.8661795679999998 2.074673114032471 0.7611977089999998 2.077460243032471 0.7389006769999998 M 2.122983350032471 0.6004732699999998 C 2.122983350032471 0.5698148509999998 2.111834834032471 0.5586663349999998 2.095112060032471 0.5586663349999998 C 2.079318329032471 0.5586663349999998 2.030079050032471 0.5753891089999998 2.030079050032471 0.6004732699999998 C 2.030079050032471 0.6014023129999999 2.050517996032471 0.6506415919999999 2.078389286032471 0.6506415919999999 C 2.100686318032471 0.6506415919999999 2.122983350032471 0.6302026459999999 2.122983350032471 0.6069765709999999 M 2.2762872395236817 0.7073132149999999 C 2.274429153523682 0.6840871399999999 2.2270479605236817 0.6803709679999999 2.210325186523682 0.6803709679999999 C 2.201034756523682 0.6803709679999999 2.176879638523682 0.6924485269999998 2.1731634665236816 0.7147455589999998 C 2.156440692523682 0.8280888049999998 2.1443631335236817 0.9535096099999998 2.130427488523682 1.0603495549999997 C 2.118349929523682 1.1588281129999998 2.107201413523682 1.2545195419999997 2.107201413523682 1.3520690569999998 C 2.107201413523682 1.3595014009999997 2.1174208865236817 1.3669337449999999 2.121137058523682 1.3669337449999999 C 2.1220661015236817 1.3660047019999997 2.1239241875236816 1.3660047019999997 2.1239241875236816 1.3622885299999998 C 2.1239241875236816 1.360430444 2.122995144523682 1.3595014009999997 2.122995144523682 1.3585723579999998 C 2.122995144523682 1.3567142719999998 2.125782273523682 1.3622885299999998 2.125782273523682 1.3613594869999999 L 2.125782273523682 1.3520690569999998 C 2.1267113165236817 1.3511400139999998 2.125782273523682 1.353927143 2.127640359523682 1.353927143 C 2.130427488523682 1.353927143 2.1313565315236818 1.3529980999999998 2.1313565315236818 1.3520690569999998 C 2.1313565315236818 1.3502109709999999 2.130427488523682 1.3483528849999997 2.130427488523682 1.3464947989999998 C 2.1332146175236817 1.3464947989999998 2.1332146175236817 1.3502109709999999 2.134143660523682 1.3520690569999998 C 2.134143660523682 1.3511400139999998 2.136001746523682 1.3483528849999997 2.136930789523682 1.3483528849999997 C 2.136930789523682 1.3483528849999997 2.143434090523682 1.3511400139999998 2.143434090523682 1.353927143 C 2.143434090523682 1.3474238419999998 2.145292176523682 1.3502109709999999 2.148079305523682 1.3474238419999998 C 2.148079305523682 1.3502109709999999 2.152724520523682 1.3520690569999998 2.154582606523682 1.3548561859999997 C 2.154582606523682 1.3529980999999998 2.161085907523682 1.3520690569999998 2.161085907523682 1.3474238419999998 C 2.161085907523682 1.3446367129999999 2.1601568645236817 1.342778627 2.1601568645236817 1.3418495839999998 C 2.1601568645236817 1.3390624549999999 2.161085907523682 1.3372043689999997 2.162943993523682 1.3372043689999997 C 2.1620149505236816 1.338133412 2.1620149505236816 1.3390624549999999 2.1620149505236816 1.3399914979999998 C 2.1620149505236816 1.3418495839999998 2.162943993523682 1.3455657559999998 2.162943993523682 1.3483528849999997 C 2.165731122523682 1.3483528849999997 2.163873036523682 1.3409205409999998 2.167589208523682 1.3372043689999997 C 2.1713053805236817 1.338133412 2.1713053805236817 1.3390624549999999 2.1713053805236817 1.3399914979999998 C 2.1713053805236817 1.3418495839999998 2.1713053805236817 1.342778627 2.170376337523682 1.3437076699999997 C 2.172234423523682 1.3437076699999997 2.1731634665236816 1.3418495839999998 2.1731634665236816 1.3409205409999998 C 2.175021552523682 1.3418495839999998 2.1731634665236816 1.3455657559999998 2.1759505955236818 1.3464947989999998 C 2.1778086815236817 1.3418495839999998 2.1759505955236818 1.3362753259999998 2.1824538965236817 1.3344172399999998 C 2.1824538965236817 1.3372043689999997 2.183382939523682 1.3399914979999998 2.1843119825236816 1.3399914979999998 C 2.1936024125236817 1.3399914979999998 2.2066090145236816 1.3009716919999998 2.2066090145236816 1.2907522189999998 C 2.2177575305236816 1.1755508869999998 2.232622218523682 1.0417686949999998 2.248415949523682 0.9349287499999999 C 2.250274035523682 0.9349287499999999 2.250274035523682 0.9358577929999998 2.252132121523682 0.9358577929999998 C 2.252132121523682 0.9367868359999998 2.256777336523682 0.9377158789999999 2.2586354225236818 0.9377158789999999 L 2.2558482935236817 0.9395739649999999 C 2.2586354225236818 0.9405030079999999 2.264209680523682 0.9414320509999998 2.264209680523682 0.9414320509999998 C 2.263280637523682 0.9442191799999998 2.272571067523682 0.9442191799999998 2.275358196523682 0.9442191799999998 C 2.279074368523682 0.9442191799999998 2.2809324545236818 0.9432901369999999 2.283719583523682 0.9432901369999999 C 2.283719583523682 0.9442191799999998 2.2846486265236816 0.9451482229999999 2.286506712523682 0.9451482229999999 C 2.345965464523682 0.9377158789999999 2.3989209155236817 0.8819732989999999 2.3989209155236817 0.8262307189999998 C 2.3989209155236817 0.7630557949999999 2.332958862523682 0.7203198169999998 2.2762872395236817 0.7073132149999999 M 2.252132121523682 0.9070574599999999 C 2.252132121523682 0.8856894709999998 2.266067766523682 0.8067208159999999 2.270712981523682 0.7528363219999998 C 2.306016615523682 0.7621267519999999 2.3338879055236816 0.7890689989999998 2.3338879055236816 0.8160112459999999 C 2.3338879055236816 0.8568891379999999 2.3069456585236816 0.9070574599999999 2.252132121523682 0.9070574599999999 M 2.2716420245236817 0.9423610939999998 C 2.2735001105236816 0.9423610939999998 2.275358196523682 0.9423610939999998 2.275358196523682 0.9432901369999999 C 2.275358196523682 0.9432901369999999 2.2735001105236816 0.9432901369999999 2.2716420245236817 0.9423610939999998 M 2.9303571005061038 0.46390394899999987 C 2.9201376275061035 0.46390394899999987 2.8987696385061037 0.42860031499999984 2.891337294506104 0.4239550999999999 C 2.891337294506104 0.4239550999999999 2.890408251506104 0.4267422289999999 2.8894792085061036 0.4267422289999999 C 2.8894792085061036 0.4267422289999999 2.888550165506104 0.42581318599999984 2.888550165506104 0.4239550999999999 L 2.8857630365061038 0.4239550999999999 C 2.8811178215061037 0.4239550999999999 2.8764726065061037 0.4248841429999999 2.8764726065061037 0.4406778739999999 C 2.830020456506104 0.5660986789999999 2.810510553506104 0.7147455589999998 2.777065005506104 0.9005541589999999 C 2.7761359625061037 0.9051993739999998 2.775206919506104 0.9079865029999998 2.7714907475061037 0.9144898039999998 C 2.767774575506104 0.9098445889999999 2.765916489506104 0.9014832019999999 2.7640584035061035 0.8940508579999998 C 2.750122758506104 0.8262307189999998 2.7426904145061037 0.6181250869999999 2.716677210506104 0.5753891089999998 C 2.716677210506104 0.5753891089999998 2.712031995506104 0.5698148509999998 2.712031995506104 0.5660986789999999 L 2.708315823506104 0.5605244209999999 C 2.6823026195061037 0.5150013139999998 2.6414247275061036 0.4471811749999999 2.5903273625061036 0.4471811749999999 C 2.5726755455061037 0.4471811749999999 2.554094685506104 0.4555425619999999 2.5345847825061036 0.4741234219999999 C 2.4546870845061037 0.5670277219999998 2.4184544075061036 0.7231069459999999 2.4184544075061036 0.8708247829999999 C 2.4184544075061036 0.9005541589999999 2.420312493506104 0.9302835349999998 2.4230996225061037 0.9590838679999998 C 2.426815794506104 0.9637290829999998 2.426815794506104 0.9711614269999999 2.4296029235061036 0.9767356849999999 L 2.433319095506104 0.9767356849999999 C 2.439822396506104 0.9804518569999998 2.4435385685061037 0.9841680289999999 2.446325697506104 0.9841680289999999 C 2.4472547405061036 0.9841680289999999 2.452828998506104 0.9888132439999998 2.4565451705061037 0.9888132439999998 L 2.4611903855061037 0.9953165449999999 L 2.463977514506104 0.9943875019999998 C 2.4676936865061037 0.9981036739999998 2.4723389015061037 1.0064650609999999 2.476055073506104 1.0120393189999999 C 2.4788422025061037 1.0148264479999998 2.4788422025061037 1.0241168779999998 2.4834874175061037 1.0296911359999998 C 2.486274546506104 1.0324782649999997 2.4899907185061037 1.0436267809999997 2.4964940195061036 1.0436267809999997 C 2.5057844495061037 1.0371234799999998 2.508571578506104 1.0148264479999998 2.5122877505061036 0.9990327169999998 C 2.5280814815061037 0.8475987079999998 2.546662341506104 0.6590029789999998 2.6172696095061037 0.5280079159999999 C 2.6265600395061037 0.5400854749999998 2.6256309965061035 0.5716729369999999 2.629347168506104 0.5911828399999999 C 2.6395666415061037 0.6896613979999999 2.6553603725061037 0.9674452549999999 2.7092448665061037 1.0482719959999998 C 2.723180511506104 1.0603495549999997 2.743619457506104 1.066852856 2.763129360506104 1.066852856 C 2.7956458655061036 1.066852856 2.828162370506104 1.0492010389999997 2.8383818435061037 1.0064650609999999 C 2.8811178215061037 0.8169402889999998 2.8987696385061037 0.6506415919999999 2.928499014506104 0.5150013139999998 C 2.9340732725061036 0.5150013139999998 2.9368604015061037 0.46947820699999987 2.9368604015061037 0.4601877769999999 L 2.9340732725061036 0.46111681999999987 C 2.933144229506104 0.4629749059999999 2.9322151865061037 0.46390394899999987 2.9303571005061038 0.46390394899999987 M 2.5587399005061036 0.5986151839999998 C 2.555952771506104 0.6004732699999998 2.5550237285061037 0.6023313559999999 2.5550237285061037 0.6051184849999999 C 2.5568818145061036 0.6041894419999998 2.5568818145061036 0.6051184849999999 2.5587399005061036 0.6014023129999999 C 2.5587399005061036 0.6144089149999998 2.547591384506104 0.6367059469999998 2.542946169506104 0.6515706349999999 C 2.5410880835061036 0.6506415919999999 2.5410880835061036 0.6487835059999998 2.5410880835061036 0.6478544629999998 C 2.5410880835061036 0.6441382909999999 2.546662341506104 0.6404221189999999 2.546662341506104 0.6376349899999998 C 2.546662341506104 0.6367059469999998 2.5457332985061036 0.6357769039999999 2.544804255506104 0.6357769039999999 C 2.544804255506104 0.6255574309999998 2.5485204275061037 0.6125508289999999 2.5522365995061036 0.6125508289999999 C 2.5522365995061036 0.6153379579999998 2.549449470506104 0.6199831729999998 2.549449470506104 0.6227703019999998 C 2.5522365995061036 0.6227703019999998 2.549449470506104 0.6171960439999998 2.553165642506104 0.6153379579999998 C 2.553165642506104 0.5986151839999998 2.5615270295061037 0.5865376249999998 2.565243201506104 0.5735310229999999 C 2.564314158506104 0.5726019799999998 2.564314158506104 0.5716729369999999 2.564314158506104 0.5707438939999998 C 2.564314158506104 0.5670277219999998 2.5680303305061036 0.5623825069999998 2.5708174595061037 0.5623825069999998 C 2.569888416506104 0.5623825069999998 2.568959373506104 0.5614534639999998 2.568959373506104 0.5605244209999999 C 2.568959373506104 0.5595953779999998 2.568959373506104 0.5577372919999999 2.569888416506104 0.5568082489999998 C 2.568959373506104 0.5568082489999998 2.568959373506104 0.5577372919999999 2.568959373506104 0.5568082489999998 C 2.568959373506104 0.5549501629999999 2.5680303305061036 0.5540211199999998 2.5680303305061036 0.5530920769999998 C 2.569888416506104 0.5530920769999998 2.569888416506104 0.5540211199999998 2.5708174595061037 0.5540211199999998 C 2.5708174595061037 0.5530920769999998 2.571746502506104 0.5521630339999999 2.5726755455061037 0.5512339909999998 L 2.5726755455061037 0.5475178189999999 C 2.5745336315061036 0.5428726039999998 2.5773207605061037 0.5391564319999999 2.5791788465061036 0.5326531309999999 C 2.5791788465061036 0.5345112169999998 2.5791788465061036 0.5363693029999999 2.578249803506104 0.5372983459999998 C 2.580107889506104 0.5326531309999999 2.584753104506104 0.5280079159999999 2.584753104506104 0.5280079159999999 C 2.584753104506104 0.5270788729999999 2.5996177925061037 0.4992075829999999 2.605192050506104 0.4982785399999998 C 2.605192050506104 0.5010656689999998 2.602404921506104 0.5010656689999998 2.602404921506104 0.5047818409999999 C 2.602404921506104 0.5047818409999999 2.6014758785061036 0.5140722709999999 2.598688749506104 0.5168593999999999 C 2.598688749506104 0.5159303569999999 2.5996177925061037 0.5159303569999999 2.5996177925061037 0.5140722709999999 C 2.5996177925061037 0.5140722709999999 2.598688749506104 0.5159303569999999 2.595901620506104 0.5168593999999999 C 2.595901620506104 0.5177884429999998 2.5968306635061036 0.5196465289999999 2.5968306635061036 0.5205755719999998 C 2.5968306635061036 0.5215046149999999 2.595901620506104 0.5224336579999999 2.5949725775061037 0.5224336579999999 L 2.595901620506104 0.5187174859999999 C 2.594043534506104 0.5205755719999998 2.591256405506104 0.5298660019999999 2.5884692765061037 0.5317240879999998 C 2.589398319506104 0.5326531309999999 2.589398319506104 0.5335821739999999 2.589398319506104 0.5345112169999998 C 2.589398319506104 0.5354402599999999 2.582895018506104 0.5410145179999999 2.582895018506104 0.5447306899999999 C 2.582895018506104 0.5456597329999998 2.5838240615061037 0.5465887759999999 2.5838240615061037 0.5475178189999999 C 2.5819659755061037 0.5475178189999999 2.5791788465061036 0.5540211199999998 2.578249803506104 0.5568082489999998 C 2.5773207605061037 0.5614534639999998 2.573604588506104 0.5679567649999999 2.5708174595061037 0.5735310229999999 C 2.5708174595061037 0.5744600659999999 2.569888416506104 0.5753891089999998 2.569888416506104 0.5763181519999998 C 2.569888416506104 0.5781762379999998 2.5726755455061037 0.5744600659999999 2.5754626745061038 0.5679567649999999 L 2.5754626745061038 0.5698148509999998 C 2.5708174595061037 0.5809633669999998 2.565243201506104 0.5893247539999998 2.560597986506104 0.6014023129999999 C 2.560597986506104 0.6004732699999998 2.560597986506104 0.5986151839999998 2.5587399005061036 0.5986151839999998 M 2.5931144915061037 0.5633115499999999 C 2.592185448506104 0.5651696359999998 2.589398319506104 0.5726019799999998 2.589398319506104 0.5735310229999999 C 2.589398319506104 0.5698148509999998 2.591256405506104 0.5614534639999998 2.594043534506104 0.5577372919999999 C 2.594043534506104 0.5558792059999998 2.5968306635061036 0.5521630339999999 2.5968306635061036 0.5493759049999999 C 2.5866111905061038 0.5670277219999998 2.5838240615061037 0.5781762379999998 2.5838240615061037 0.5791052809999999 C 2.584753104506104 0.5781762379999998 2.5856821475061036 0.5781762379999998 2.5866111905061038 0.5781762379999998 C 2.5773207605061037 0.6041894419999998 2.571746502506104 0.6218412589999999 2.5633851155061036 0.6413511619999999 C 2.5633851155061036 0.6329897749999999 2.568959373506104 0.6283445599999998 2.568959373506104 0.6209122159999998 C 2.568959373506104 0.6209122159999998 2.5661722445061037 0.6209122159999998 2.5661722445061037 0.6227703019999998 C 2.5661722445061037 0.6236993449999999 2.565243201506104 0.6404221189999999 2.5587399005061036 0.6404221189999999 C 2.5596689435061037 0.6320607319999998 2.560597986506104 0.6116217859999998 2.565243201506104 0.6069765709999999 C 2.565243201506104 0.6088346569999998 2.5661722445061037 0.6088346569999998 2.5661722445061037 0.6088346569999998 C 2.565243201506104 0.6079056139999999 2.565243201506104 0.6060475279999998 2.565243201506104 0.6051184849999999 C 2.5680303305061036 0.6014023129999999 2.5680303305061036 0.6004732699999998 2.5680303305061036 0.5967570979999999 C 2.571746502506104 0.5967570979999999 2.5726755455061037 0.5948990119999998 2.5726755455061037 0.5911828399999999 C 2.5726755455061037 0.5930409259999998 2.573604588506104 0.5930409259999998 2.5745336315061036 0.5930409259999998 C 2.5754626745061038 0.5930409259999998 2.5773207605061037 0.5921118829999998 2.5773207605061037 0.5921118829999998 C 2.580107889506104 0.5948990119999998 2.582895018506104 0.5633115499999999 2.5884692765061037 0.5633115499999999 C 2.5884692765061037 0.5623825069999998 2.587540233506104 0.5614534639999998 2.587540233506104 0.5605244209999999 C 2.5884692765061037 0.5595953779999998 2.5856821475061036 0.5595953779999998 2.584753104506104 0.5595953779999998 C 2.5838240615061037 0.5595953779999998 2.5884692765061037 0.5558792059999998 2.589398319506104 0.5530920769999998 C 2.589398319506104 0.5549501629999999 2.5884692765061037 0.5568082489999998 2.5884692765061037 0.5586663349999998 C 2.5949725775061037 0.5475178189999999 2.5996177925061037 0.5317240879999998 2.607050136506104 0.5205755719999998 C 2.609837265506104 0.5224336579999999 2.609837265506104 0.5242917439999999 2.609837265506104 0.5270788729999999 C 2.605192050506104 0.5307950449999999 2.594043534506104 0.5577372919999999 2.5931144915061037 0.5633115499999999 M 2.582895018506104 0.5168593999999999 C 2.582895018506104 0.5177884429999998 2.5838240615061037 0.5159303569999999 2.5838240615061037 0.5150013139999998 C 2.5838240615061037 0.5159303569999999 2.584753104506104 0.5177884429999998 2.584753104506104 0.5177884429999998 C 2.584753104506104 0.5196465289999999 2.5838240615061037 0.5215046149999999 2.5838240615061037 0.5233627009999998 C 2.5856821475061036 0.5196465289999999 2.587540233506104 0.5159303569999999 2.5884692765061037 0.5103560989999999 C 2.592185448506104 0.5103560989999999 2.5968306635061036 0.4992075829999999 2.6033339645061035 0.4927042819999998 C 2.595901620506104 0.5038527979999998 2.5866111905061038 0.5177884429999998 2.5810369325061036 0.5317240879999998 C 2.5810369325061036 0.5298660019999999 2.5819659755061037 0.5280079159999999 2.5819659755061037 0.5270788729999999 C 2.580107889506104 0.5317240879999998 2.5754626745061038 0.5363693029999999 2.573604588506104 0.5382273889999999 C 2.573604588506104 0.5400854749999998 2.571746502506104 0.5428726039999998 2.571746502506104 0.5419435609999999 C 2.571746502506104 0.5400854749999998 2.5726755455061037 0.5391564319999999 2.5726755455061037 0.5382273889999999 C 2.5726755455061037 0.5391564319999999 2.5773207605061037 0.5252207869999999 2.582895018506104 0.5168593999999999 M 2.589398319506104 0.5317240879999998 L 2.5949725775061037 0.5242917439999999 C 2.5949725775061037 0.5261498299999998 2.591256405506104 0.5298660019999999 2.591256405506104 0.5317240879999998 C 2.594043534506104 0.5317240879999998 2.594043534506104 0.5298660019999999 2.5949725775061037 0.5298660019999999 C 2.5949725775061037 0.5410145179999999 2.5884692765061037 0.5475178189999999 2.582895018506104 0.5540211199999998 C 2.5856821475061036 0.5475178189999999 2.589398319506104 0.5400854749999998 2.591256405506104 0.5345112169999998 C 2.591256405506104 0.5317240879999998 2.589398319506104 0.5317240879999998 2.589398319506104 0.5317240879999998 M 2.560597986506104 0.5633115499999999 C 2.5615270295061037 0.5642405929999998 2.5615270295061037 0.5651696359999998 2.5615270295061037 0.5660986789999999 C 2.5615270295061037 0.5716729369999999 2.5550237285061037 0.5856085819999999 2.5522365995061036 0.5893247539999998 C 2.5522365995061036 0.5865376249999998 2.553165642506104 0.5828214529999999 2.553165642506104 0.5791052809999999 C 2.554094685506104 0.5791052809999999 2.5587399005061036 0.5679567649999999 2.560597986506104 0.5633115499999999 M 2.745477543506104 0.8299468909999999 C 2.7445485005061037 0.8243726329999999 2.743619457506104 0.8225145469999998 2.743619457506104 0.8225145469999998 C 2.743619457506104 0.8215855039999999 2.7426904145061037 0.8122950739999999 2.7426904145061037 0.8122950739999999 C 2.7426904145061037 0.8113660309999998 2.7399032855061036 0.8002175149999998 2.7399032855061036 0.7946432569999998 C 2.740832328506104 0.7955722999999999 2.740832328506104 0.7965013429999999 2.740832328506104 0.7974303859999998 L 2.740832328506104 0.7937142139999999 C 2.740832328506104 0.7909270849999999 2.740832328506104 0.7890689989999998 2.7399032855061036 0.7872109129999998 C 2.740832328506104 0.7872109129999998 2.740832328506104 0.7862818699999998 2.740832328506104 0.7825656979999999 L 2.7464065865061036 0.8327340199999999 C 2.7464065865061036 0.8336630629999998 2.745477543506104 0.8308759339999998 2.745477543506104 0.8299468909999999 M 2.7361871135061038 0.7481911069999998 C 2.737116156506104 0.7537653649999998 2.738974242506104 0.7630557949999999 2.738974242506104 0.7704881389999998 L 2.738974242506104 0.7825656979999999 C 2.7380451995061037 0.7825656979999999 2.7380451995061037 0.7816366549999998 2.7380451995061037 0.7797785689999999 C 2.737116156506104 0.7779204829999998 2.737116156506104 0.7769914399999999 2.737116156506104 0.7760623969999998 L 2.737116156506104 0.7602686659999999 C 2.737116156506104 0.7556234509999998 2.7361871135061038 0.7509782359999999 2.7361871135061038 0.7481911069999998 M 2.5726755455061037 0.5633115499999999 C 2.568959373506104 0.5726019799999998 2.5633851155061036 0.5781762379999998 2.5633851155061036 0.5828214529999999 C 2.5633851155061036 0.5809633669999998 2.565243201506104 0.5791052809999999 2.5680303305061036 0.5791052809999999 C 2.5680303305061036 0.5818924099999998 2.5726755455061037 0.5670277219999998 2.5726755455061037 0.5633115499999999 M 2.571746502506104 0.5837504959999998 C 2.571746502506104 0.5791052809999999 2.5745336315061036 0.5744600659999999 2.5773207605061037 0.5716729369999999 C 2.5754626745061038 0.5744600659999999 2.5754626745061038 0.5763181519999998 2.5745336315061036 0.5781762379999998 C 2.5754626745061038 0.5800343239999999 2.578249803506104 0.5781762379999998 2.578249803506104 0.5809633669999998 C 2.5773207605061037 0.5809633669999998 2.5726755455061037 0.5856085819999999 2.5726755455061037 0.5865376249999998 C 2.5726755455061037 0.5856085819999999 2.571746502506104 0.5846795389999999 2.571746502506104 0.5837504959999998 M 2.569888416506104 0.5438016469999999 C 2.569888416506104 0.5512339909999998 2.564314158506104 0.5568082489999998 2.562456072506104 0.5623825069999998 L 2.5633851155061036 0.5586663349999998 C 2.5661722445061037 0.5540211199999998 2.567101287506104 0.5484468619999998 2.569888416506104 0.5438016469999999 M 2.5791788465061036 0.5521630339999999 C 2.5773207605061037 0.5540211199999998 2.5754626745061038 0.5558792059999998 2.5754626745061038 0.5577372919999999 C 2.578249803506104 0.5577372919999999 2.5791788465061036 0.5540211199999998 2.5791788465061036 0.5521630339999999 M 2.578249803506104 0.5456597329999998 C 2.578249803506104 0.5447306899999999 2.5773207605061037 0.5438016469999999 2.5773207605061037 0.5428726039999998 L 2.5773207605061037 0.5410145179999999 L 2.5726755455061037 0.5512339909999998 C 2.5745336315061036 0.5475178189999999 2.5773207605061037 0.5447306899999999 2.578249803506104 0.5456597329999998 M 2.5708174595061037 0.5540211199999998 C 2.569888416506104 0.5549501629999999 2.569888416506104 0.5558792059999998 2.569888416506104 0.5568082489999998 C 2.569888416506104 0.5558792059999998 2.569888416506104 0.5558792059999998 2.5708174595061037 0.5549501629999999 M 2.578249803506104 0.5558792059999998 C 2.578249803506104 0.5558792059999998 2.578249803506104 0.5568082489999998 2.578249803506104 0.5568082489999998 M 3.2174282120661624 0.8355211489999999 C 3.2174282120661624 0.8364501919999998 3.2183572550661625 0.8392373209999998 3.2192862980661623 0.8392373209999998 C 3.2295057710661625 0.8197274179999998 3.2378671580661624 0.8178693319999999 3.2378671580661624 0.8122950739999999 C 3.2378671580661624 0.8048627299999999 3.2499447170661626 0.7946432569999998 3.2536608890661625 0.7899980419999999 C 3.2527318460661623 0.7927851709999998 3.2518028030661625 0.7983594289999998 3.2499447170661626 0.8002175149999998 L 3.2443704590661624 0.8057917729999998 C 3.2360090720661625 0.8234435899999999 3.2164991690661626 0.8503858369999998 3.2025635240661625 0.8689666969999998 C 3.2025635240661625 0.8671086109999998 3.1997763950661624 0.8661795679999998 3.1997763950661624 0.8661795679999998 C 3.1969892660661623 0.8680376539999999 3.1951311800661624 0.8782571269999998 3.1951311800661624 0.8838313849999998 C 3.1951311800661624 0.8866185139999998 3.1960602230661626 0.8884765999999998 3.1960602230661626 0.8884765999999998 C 3.2239315130661623 0.8541020089999999 3.2638803620661623 0.8002175149999998 3.2638803620661623 0.7779204829999998 C 3.2638803620661623 0.7751333539999998 3.2657384480661626 0.7714171819999999 3.2657384480661626 0.7677010099999999 C 3.2657384480661626 0.7649138809999998 3.2648094050661625 0.7667719669999998 3.2648094050661625 0.7621267519999999 C 3.2648094050661625 0.7621267519999999 3.2648094050661625 0.7593396229999998 3.2638803620661623 0.7593396229999998 C 3.2583061040661625 0.7732752679999999 3.2573770610661623 0.7797785689999999 3.2508737600661624 0.7862818699999998 C 3.2508737600661624 0.7834947409999998 3.2536608890661625 0.7825656979999999 3.2536608890661625 0.7797785689999999 C 3.2536608890661625 0.7779204829999998 3.2462285450661623 0.7937142139999999 3.2378671580661624 0.8002175149999998 C 3.2545899320661626 0.7667719669999998 3.2545899320661626 0.7639848379999998 3.2564480180661626 0.7639848379999998 C 3.2564480180661626 0.7649138809999998 3.2555189750661624 0.7686300529999999 3.2555189750661624 0.7704881389999998 C 3.2601641900661624 0.7658429239999999 3.2610932330661626 0.7593396229999998 3.2610932330661626 0.7556234509999998 L 3.2610932330661626 0.7519072789999999 C 3.2610932330661626 0.7491201499999999 3.2638803620661623 0.7444749349999998 3.2657384480661626 0.7426168489999998 C 3.2610932330661626 0.7407587629999999 3.2610932330661626 0.7361135479999998 3.2583061040661625 0.7361135479999998 C 3.2573770610661623 0.7361135479999998 3.2555189750661624 0.7370425909999998 3.2527318460661623 0.7398297199999999 L 3.2452995020661626 0.7491201499999999 C 3.2239315130661623 0.7816366549999998 3.1319562560661627 0.9182059759999999 3.0446262140661626 0.9182059759999999 C 3.0093225800661623 0.9182059759999999 2.9842384190661626 0.8996251159999998 2.9842384190661626 0.8633924389999998 C 2.9842384190661626 0.8550310519999998 2.9860965050661625 0.8448115789999998 2.9898126770661624 0.8336630629999998 C 3.0000321500661626 0.8355211489999999 3.0130387520661626 0.8373792349999998 3.0260453540661625 0.8373792349999998 C 3.1124463530661624 0.8373792349999998 3.1328852990661624 0.7760623969999998 3.1328852990661624 0.7463330209999999 C 3.1328852990661624 0.7221779029999998 3.1226658260661626 0.7138165159999998 3.1208077400661622 0.7063841719999999 C 3.1189496540661623 0.7017389569999999 3.1198786970661625 0.6878033119999998 3.1143044390661623 0.6878033119999998 C 3.1133753960661625 0.6878033119999998 3.1124463530661624 0.6878033119999998 3.1115173100661626 0.6887323549999999 C 3.1115173100661626 0.6896613979999999 3.1124463530661624 0.6905904409999999 3.1124463530661624 0.6915194839999999 C 3.0994397510661624 0.6850161829999999 3.0994397510661624 0.6747967099999999 3.0817879340661625 0.6747967099999999 C 2.9907417200661626 0.6747967099999999 2.9136311510661623 0.7909270849999999 2.9136311510661623 0.8698957399999998 C 2.9136311510661623 0.9107736319999998 2.9294248820661624 0.9497934379999998 2.9637994730661625 0.9804518569999998 L 2.9637994730661625 0.9758066419999998 C 2.9647285160661623 0.9758066419999998 2.9805222470661623 0.9832389859999998 2.9823803330661627 0.9850970719999999 C 2.9851674620661623 0.9869551579999998 2.9879545910661625 0.9860261149999998 2.9944578920661624 0.9878842009999999 C 2.9935288490661627 0.9860261149999998 2.9888836340661626 0.9850970719999999 2.9870255480661623 0.9832389859999998 C 2.9991031070661625 0.9869551579999998 3.0158258810661627 0.9888132439999998 3.0251163110661623 0.9888132439999998 C 3.0223291820661626 0.9869551579999998 3.0148968380661625 0.9860261149999998 3.0148968380661625 0.9860261149999998 C 3.0037483220661625 0.9860261149999998 2.9916707630661623 0.9850970719999999 2.9842384190661626 0.9776647279999998 C 2.9898126770661624 0.9795228139999999 2.9963159780661623 0.9804518569999998 3.0018902360661626 0.9832389859999998 L 3.0056064080661624 0.9832389859999998 C 3.0083935370661625 0.9832389859999998 3.0102516230661625 0.9832389859999998 3.0111806660661626 0.9850970719999999 C 3.0130387520661626 0.9850970719999999 3.0121097090661624 0.9832389859999998 3.0130387520661626 0.9832389859999998 C 3.0158258810661627 0.9832389859999998 3.0214001390661624 0.9850970719999999 3.0241872680661626 0.9850970719999999 C 3.0325486550661624 0.9850970719999999 3.0362648270661623 0.9906713299999999 3.0455552570661624 0.9906713299999999 C 3.0483423860661625 0.9906713299999999 3.0539166440661623 0.9906713299999999 3.0585618590661623 0.9888132439999998 C 3.1291691270661626 0.9730195129999999 3.1746922340661623 0.9154188469999999 3.1895569220661626 0.8968379869999998 C 3.1932730940661624 0.8931218149999999 3.1914150080661625 0.8680376539999999 3.2007054380661626 0.8624633959999999 C 3.2044216100661624 0.8624633959999999 3.2072087390661626 0.8513148799999999 3.2090668250661625 0.8485277509999998 C 3.2127829970661623 0.8494567939999998 3.2127829970661623 0.8401663639999999 3.2155701260661624 0.8364501919999998 C 3.2155701260661624 0.8364501919999998 3.2164991690661626 0.8355211489999999 3.2174282120661624 0.8355211489999999 M 3.0790008050661624 0.7156746019999998 C 3.0827169770661627 0.7156746019999998 3.0855041060661623 0.7156746019999998 3.0882912350661624 0.7166036449999998 C 3.0790008050661624 0.7546944079999999 3.0158258810661627 0.7844237839999999 3.0018902360661626 0.7946432569999998 C 3.0093225800661623 0.7732752679999999 3.0241872680661626 0.7509782359999999 3.0399809990661626 0.7333264189999998 C 3.0502004720661624 0.7249650319999998 3.0641361170661625 0.7156746019999998 3.0790008050661624 0.7156746019999998 M 3.2192862980661623 0.8290178479999999 C 3.2192862980661623 0.8327340199999999 3.2164991690661626 0.8345921059999999 3.2155701260661624 0.8364501919999998 C 3.2146410830661623 0.8364501919999998 3.2053506530661626 0.8457406219999999 3.2053506530661626 0.8494567939999998 C 3.1997763950661624 0.8494567939999998 3.1988473520661627 0.8568891379999999 3.1951311800661624 0.8587472239999998 C 3.1969892660661623 0.8568891379999999 3.1969892660661623 0.8541020089999999 3.1988473520661627 0.8531729659999998 C 3.1969892660661623 0.8541020089999999 3.1951311800661624 0.8559600949999998 3.1942021370661626 0.8559600949999998 C 3.1942021370661626 0.8503858369999998 3.1979183090661625 0.8475987079999998 3.1997763950661624 0.8429534929999998 C 3.2053506530661626 0.8429534929999998 3.2081377820661623 0.8262307189999998 3.2137120400661625 0.8197274179999998 C 3.2146410830661623 0.8206564609999998 3.2146410830661623 0.8215855039999999 3.2146410830661623 0.8225145469999998 C 3.2146410830661623 0.8280888049999998 3.2090668250661625 0.8392373209999998 3.2062796960661624 0.8429534929999998 C 3.2090668250661625 0.8392373209999998 3.2155701260661624 0.8290178479999999 3.2155701260661624 0.8299468909999999 C 3.2155701260661624 0.8243726329999999 3.2230024700661626 0.8122950739999999 3.2267186420661624 0.8104369879999999 C 3.2248605560661625 0.8141531599999998 3.2211443840661627 0.8169402889999998 3.2202153410661625 0.8215855039999999 C 3.2202153410661625 0.8253016759999998 3.2192862980661623 0.8271597619999999 3.2192862980661623 0.8290178479999999 M 3.2304348140661623 0.8057917729999998 C 3.2304348140661623 0.8039336869999998 3.2304348140661623 0.8030046439999998 3.2295057710661625 0.8030046439999998 C 3.2276476850661626 0.8030046439999998 3.2248605560661625 0.8095079449999998 3.2239315130661623 0.8104369879999999 C 3.2239315130661623 0.7937142139999999 3.2397252440661624 0.7807076119999998 3.2480866310661627 0.7714171819999999 C 3.2462285450661623 0.7760623969999998 3.2341509860661626 0.7899980419999999 3.2350800290661623 0.7937142139999999 C 3.2313638570661625 0.7974303859999998 3.2322929000661627 0.8011465579999999 3.2304348140661623 0.8057917729999998 M 3.0687813320661625 0.6887323549999999 C 3.0669232460661626 0.6887323549999999 3.0650651600661627 0.6878033119999998 3.0622780310661626 0.6878033119999998 C 3.0576328160661626 0.6905904409999999 3.0520585580661623 0.6924485269999998 3.0464843000661626 0.6933775699999998 C 3.0511295150661626 0.6887323549999999 3.0641361170661625 0.6850161829999999 3.0669232460661626 0.6840871399999999 C 3.0669232460661626 0.6850161829999999 3.0678522890661624 0.6859452259999999 3.0697103750661623 0.6859452259999999 L 3.0743555900661623 0.6859452259999999 C 3.0743555900661623 0.6868742689999998 3.0706394180661625 0.6887323549999999 3.0687813320661625 0.6887323549999999 M 3.1282400840661624 0.7258940749999998 C 3.1254529550661623 0.7240359889999999 3.1245239120661625 0.7184617309999999 3.1226658260661626 0.7156746019999998 L 3.1226658260661626 0.7231069459999999 C 3.1198786970661625 0.7249650319999998 3.1189496540661623 0.7091713009999998 3.1189496540661623 0.7082422579999998 C 3.1226658260661626 0.7110293869999998 3.1282400840661624 0.7221779029999998 3.1282400840661624 0.7258940749999998 M 3.0697103750661623 0.6813000109999998 C 3.0706394180661625 0.6813000109999998 3.0715684610661627 0.6813000109999998 3.0724975040661624 0.6822290539999998 C 3.0743555900661623 0.6822290539999998 3.0752846330661625 0.6822290539999998 3.0771427190661624 0.6813000109999998 C 3.0780717620661626 0.6813000109999998 3.0790008050661624 0.6813000109999998 3.0808588910661623 0.6822290539999998 C 3.0650651600661627 0.6822290539999998 3.0492714290661627 0.6887323549999999 3.0371938700661625 0.6970937419999998 C 3.0427681280661627 0.6915194839999999 3.0511295150661626 0.6859452259999999 3.0613489880661624 0.6840871399999999 C 3.0613489880661624 0.6831580969999999 3.0669232460661626 0.6813000109999998 3.0697103750661623 0.6813000109999998 M 3.0762136760661623 0.6766547959999998 C 3.0780717620661626 0.6766547959999998 3.0799298480661625 0.6766547959999998 3.0817879340661625 0.6775838389999999 L 3.0659942030661624 0.6803709679999999 C 3.0650651600661627 0.6785128819999999 3.0724975040661624 0.6794419249999999 3.0724975040661624 0.6775838389999999 C 3.0734265470661626 0.6766547959999998 3.0743555900661623 0.6766547959999998 3.0762136760661623 0.6766547959999998 M 3.3976902257570805 0.9432901369999999 C 3.4144129997570802 0.9302835349999998 3.4302067307570807 0.9237802339999999 3.4432133327570806 0.9079865029999998 C 3.4422842897570805 0.9089155459999998 3.4394971607570803 0.9098445889999999 3.4394971607570803 0.9089155459999998 C 3.4394971607570803 0.9079865029999998 3.4478585477570807 0.9014832019999999 3.4478585477570807 0.9005541589999999 C 3.4478585477570807 0.8996251159999998 3.4487875907570804 0.8986960729999999 3.4487875907570804 0.8977670299999998 C 3.4506456767570803 0.8959089439999999 3.4497166337570806 0.8921927719999998 3.4515747197570805 0.8921927719999998 C 3.4515747197570805 0.8921927719999998 3.4534328057570804 0.8931218149999999 3.4562199347570806 0.8949799009999998 C 3.4590070637570802 0.8856894709999998 3.4580780207570805 0.8921927719999998 3.4608651497570806 0.8856894709999998 C 3.4617941927570803 0.8829023419999998 3.4682974937570803 0.8773280839999998 3.4682974937570803 0.8726828689999998 C 3.4682974937570803 0.8726828689999998 3.4701555797570807 0.8708247829999999 3.4738717517570805 0.8708247829999999 C 3.4729427087570803 0.8726828689999998 3.4692265367570805 0.8726828689999998 3.4692265367570805 0.8745409549999998 C 3.4692265367570805 0.8754699979999998 3.4775879237570804 0.8698957399999998 3.4775879237570804 0.8652505249999999 C 3.4775879237570804 0.8578181809999998 3.4822331387570804 0.8587472239999998 3.4859493107570803 0.8513148799999999 C 3.4850202677570805 0.8503858369999998 3.4850202677570805 0.8494567939999998 3.4850202677570805 0.8494567939999998 L 3.4850202677570805 0.8485277509999998 C 3.4905945257570803 0.8485277509999998 3.4905945257570803 0.8457406219999999 3.4933816547570804 0.8410954069999999 L 3.4961687837570805 0.8364501919999998 C 3.4924526117570807 0.8364501919999998 3.4859493107570803 0.8457406219999999 3.4850202677570805 0.8485277509999998 L 3.4840912247570803 0.8485277509999998 L 3.4850202677570805 0.8494567939999998 C 3.4850202677570805 0.8513148799999999 3.4757298377570804 0.8568891379999999 3.4757298377570804 0.8578181809999998 C 3.4757298377570804 0.8587472239999998 3.4738717517570805 0.8652505249999999 3.4738717517570805 0.8633924389999998 C 3.4729427087570803 0.8624633959999999 3.4655103647570806 0.8726828689999998 3.4617941927570803 0.8754699979999998 C 3.4617941927570803 0.8791861699999999 3.4580780207570805 0.8801152129999998 3.4571489777570803 0.8819732989999999 C 3.4571489777570803 0.8810442559999998 3.4571489777570803 0.8801152129999998 3.4580780207570805 0.8782571269999998 C 3.4590070637570802 0.8745409549999998 3.4608651497570806 0.8698957399999998 3.4645813217570804 0.8698957399999998 C 3.4645813217570804 0.8652505249999999 3.4692265367570805 0.8624633959999999 3.4692265367570805 0.8578181809999998 C 3.4692265367570805 0.8578181809999998 3.4590070637570802 0.8726828689999998 3.4525037627570807 0.8726828689999998 C 3.4515747197570805 0.8726828689999998 3.4729427087570803 0.8541020089999999 3.4757298377570804 0.8410954069999999 L 3.4785169667570806 0.8410954069999999 C 3.4785169667570806 0.8383082779999999 3.4766588807570806 0.8392373209999998 3.4766588807570806 0.8383082779999999 C 3.4785169667570806 0.8383082779999999 3.4794460097570803 0.8373792349999998 3.4803750527570805 0.8364501919999998 L 3.4803750527570805 0.8336630629999998 C 3.4859493107570803 0.8318049769999998 3.4924526117570807 0.8150822029999998 3.4924526117570807 0.8160112459999999 L 3.4998849557570804 0.8030046439999998 C 3.5017430417570803 0.7992884719999999 3.5017430417570803 0.7965013429999999 3.5017430417570803 0.7946432569999998 L 3.5017430417570803 0.7899980419999999 C 3.5017430417570803 0.7881399559999999 3.5017430417570803 0.7872109129999998 3.5026720847570805 0.7853528269999999 C 3.5026720847570805 0.7853528269999999 3.5026720847570805 0.7797785689999999 3.5036011277570807 0.7807076119999998 L 3.4989559127570806 0.7751333539999998 L 3.4970978267570807 0.7704881389999998 C 3.48130409575708 0.7909270849999999 3.3995483117570804 0.9163478899999998 3.3484509467570804 0.9525805669999998 C 3.3465928607570805 0.9525805669999998 3.3447347747570806 0.9516515239999999 3.3447347747570806 0.9488643949999999 C 3.3447347747570806 0.9107736319999998 3.4218453437570804 0.8095079449999998 3.4218453437570804 0.7444749349999998 C 3.4218453437570804 0.6970937419999998 3.3307991297570805 0.6831580969999999 3.3326572157570804 0.6757257529999998 C 3.3326572157570804 0.6673643659999999 3.3716770217570806 0.6097636999999998 3.3716770217570806 0.5707438939999998 C 3.3716770217570806 0.5549501629999999 3.3465928607570805 0.5242917439999999 3.3112892267570806 0.5242917439999999 C 3.2536885607570807 0.5242917439999999 3.2406819587570803 0.6227703019999998 3.2406819587570803 0.6320607319999998 C 3.2406819587570803 0.6747967099999999 3.2527595177570805 0.6859452259999999 3.2722694207570804 0.6989518279999998 C 3.2443981307570806 0.7454039779999999 3.2072364107570803 0.8048627299999999 3.1830812927570804 0.8383082779999999 C 3.1830812927570804 0.8410954069999999 3.1812232067570805 0.8420244499999998 3.1812232067570805 0.8448115789999998 C 3.1812232067570805 0.8624633959999999 3.1914426797570803 0.8698957399999998 3.2090944967570807 0.8698957399999998 C 3.2165268407570804 0.8633924389999998 3.2574047327570805 0.8011465579999999 3.3094311407570807 0.7138165159999998 C 3.3112892267570806 0.7147455589999998 3.3354443447570805 0.7212488599999998 3.3354443447570805 0.7277521609999998 C 3.3354443447570805 0.7528363219999998 3.2620499477570806 0.8559600949999998 3.2620499477570806 0.9154188469999999 C 3.2620499477570806 0.9581548249999998 3.3131473127570805 0.9823099429999999 3.3345153017570803 0.9823099429999999 C 3.3753931937570805 0.9823099429999999 3.4153420427570804 0.9414320509999998 3.4153420427570804 0.9395739649999999 L 3.4199872577570805 0.9321416209999999 C 3.4181291717570805 0.9330706639999998 3.3976902257570805 0.9432901369999999 3.3976902257570805 0.9432901369999999 M 3.2908502807570805 0.6515706349999999 C 3.2908502807570805 0.6255574309999998 3.3094311407570807 0.5883957109999999 3.3298700867570803 0.5781762379999998 C 3.3270829577570806 0.6079056139999999 3.3094311407570807 0.6367059469999998 3.2945664527570804 0.6608610649999999 L 3.2927083667570805 0.6636481939999999 C 3.2917793237570807 0.6599320219999998 3.2908502807570805 0.6562158499999999 3.2908502807570805 0.6515706349999999 M 3.4831621817570806 0.8355211489999999 C 3.4831621817570806 0.8364501919999998 3.4887364397570804 0.8318049769999998 3.4896654827570806 0.8318049769999998 C 3.4905945257570803 0.8318049769999998 3.4924526117570807 0.8290178479999999 3.4933816547570804 0.8262307189999998 C 3.4943106977570806 0.8253016759999998 3.4943106977570806 0.8243726329999999 3.4943106977570806 0.8234435899999999 C 3.4905945257570803 0.8243726329999999 3.4831621817570806 0.8318049769999998 3.4831621817570806 0.8355211489999999 M 3.4487875907570804 0.8819732989999999 C 3.4543618487570806 0.8791861699999999 3.4562199347570806 0.8754699979999998 3.4562199347570806 0.8745409549999998 L 3.4590070637570802 0.8726828689999998 C 3.4562199347570806 0.8773280839999998 3.4534328057570804 0.8801152129999998 3.4487875907570804 0.8819732989999999 M 3.4961569892658697 1.0315492219999998 C 3.5472543542658697 1.0315492219999998 3.5983517192658696 0.9581548249999998 3.6132164072658695 0.9247092769999998 C 3.61042927826587 0.9525805669999998 3.6057840632658698 0.9981036739999998 3.6057840632658698 1.0408396519999998 C 3.6057840632658698 1.0733561569999999 3.6076421492658697 1.104943619 3.6160035362658696 1.1244535219999998 L 3.6160035362658696 1.117021178 C 3.61971970826587 1.117021178 3.61971970826587 1.1188792639999998 3.62157779426587 1.121666393 C 3.62157779426587 1.117021178 3.6206487512658696 1.110517877 3.6206487512658696 1.1077307479999998 L 3.62436492326587 1.110517877 C 3.62436492326587 1.1086597909999998 3.6252939662658696 1.1077307479999998 3.6252939662658696 1.105872662 C 3.6252939662658696 1.105872662 3.6252939662658696 1.104943619 3.63272631026587 1.1188792639999998 C 3.63272631026587 1.1133050059999998 3.6317972672658696 1.110517877 3.6317972672658696 1.105872662 C 3.6336553532658695 1.110517877 3.63737152526587 1.1142340489999998 3.6383005682658696 1.1142340489999998 L 3.6383005682658696 1.105872662 C 3.6429457832658696 1.1077307479999998 3.65316525626587 1.1123759629999999 3.65502334226587 1.116092135 C 3.65502334226587 1.1133050059999998 3.6624556862658695 1.1068017049999999 3.6661718582658698 1.104943619 L 3.6680299442658697 1.1012274469999999 C 3.6680299442658697 1.1030855329999998 3.67081707326587 1.105872662 3.67081707326587 1.1077307479999998 C 3.67081707326587 1.105872662 3.6745332452658697 1.1040145759999997 3.6745332452658697 1.1040145759999997 C 3.67546228826587 1.104943619 3.6763913312658696 1.104943619 3.6773203742658698 1.104943619 C 3.6801075032658694 1.104943619 3.6810365462658696 1.104943619 3.68196558926587 1.1030855329999998 C 3.6828946322658696 1.104943619 3.6828946322658696 1.105872662 3.6847527182658695 1.1077307479999998 C 3.6847527182658695 1.105872662 3.6856817612658697 1.105872662 3.6856817612658697 1.1040145759999997 C 3.6856817612658697 1.1030855329999998 3.6893979332658695 1.1077307479999998 3.6921850622658696 1.1077307479999998 C 3.69125601926587 1.1030855329999998 3.69125601926587 1.100298404 3.69125601926587 1.0956531889999999 C 3.6940431482658695 1.100298404 3.69311410526587 1.1077307479999998 3.69775932026587 1.1077307479999998 L 3.69775932026587 1.100298404 C 3.7005464492658695 1.104943619 3.7033335782658696 1.1095888339999997 3.7061207072658697 1.110517877 C 3.7061207072658697 1.110517877 3.7061207072658697 1.1077307479999998 3.7079787932658697 1.1077307479999998 C 3.7107659222658698 1.1077307479999998 3.71355305126587 1.110517877 3.7163401802658695 1.110517877 C 3.7144820942658696 1.105872662 3.7144820942658696 1.100298404 3.7144820942658696 1.0965822319999998 C 3.7144820942658696 1.0845046729999999 3.71541113726587 1.0426977379999998 3.71819826626587 1.0250459209999998 C 3.7432824272658696 0.8336630629999998 3.7748698892658696 0.5948990119999998 3.81388969526587 0.3932966809999998 C 3.8148187382658696 0.38958050899999985 3.8185349102658694 0.3793610359999998 3.8185349102658694 0.3719286919999999 C 3.8185349102658694 0.3691415629999999 3.8185349102658694 0.3663544339999999 3.8166768242658695 0.3654253909999998 C 3.8157477812658698 0.3487026169999998 3.80274117926587 0.34219931599999986 3.78694744826587 0.34219931599999986 C 3.77115371726587 0.34219931599999986 3.7516438142658695 0.3487026169999998 3.74049529826587 0.3579930469999999 C 3.7386372122658695 0.3570640039999998 3.73585008326587 0.3570640039999998 3.7339919972658695 0.3570640039999998 C 3.7228434812658695 0.3570640039999998 3.7079787932658697 0.36449634799999986 3.7051916642658695 0.3765739069999998 C 3.6801075032658694 0.4546135189999999 3.6624556862658695 0.5688858079999999 3.65316525626587 0.6320607319999998 C 3.65316525626587 0.6348478609999999 3.6522362132658697 0.6376349899999998 3.6522362132658697 0.6404221189999999 L 3.6503781272658697 0.6534287209999998 C 3.5444672252658695 0.6580739359999999 3.4422724952658696 0.7742043109999999 3.4422724952658696 0.9451482229999999 C 3.4422724952658696 0.9804518569999998 3.45899526926587 1.0315492219999998 3.4961569892658697 1.0315492219999998 M 3.63737152526587 0.7500491929999998 C 3.61507449326587 0.8048627299999999 3.5760546872658696 0.9451482229999999 3.50823454826587 0.9823099429999999 C 3.50358933326587 0.9823099429999999 3.5026602902658697 0.9758066419999998 3.5026602902658697 0.9711614269999999 C 3.52124115026587 0.8940508579999998 3.5621190422658695 0.8011465579999999 3.63737152526587 0.7500491929999998" fill="#f9f7e9" fill-rule="nonzero"></path></g><g transform="matrix(1,0,0,1,0,0)"></g></g><defs><clipPath id="SvgjsClipPath1001"><path d=" M 0.6444696545588382 0.030374015333787807 h 3.675207116175293 v 1.3445879693324243 h -3.675207116175293 Z"></path></clipPath></defs></svg>